<svg xmlns="http://www.w3.org/2000/svg" viewBox="0 0 600 1266" role="img" aria-label="Placeholder preview of the Fulô Crochet storefront on mobile">
  <defs>
    <linearGradient id="heroGradM" x1="0" y1="0" x2="1" y2="1">
      <stop offset="0%" stop-color="#E8C7B0"/>
      <stop offset="100%" stop-color="#C6633B"/>
    </linearGradient>
    <linearGradient id="cardGradM" x1="0" y1="0" x2="1" y2="0">
      <stop offset="0%" stop-color="#F1E4D3"/>
      <stop offset="100%" stop-color="#E3CBB0"/>
    </linearGradient>
  </defs>

  <rect width="600" height="1266" fill="#F7EFE4"/>

  <!-- nav -->
  <rect x="0" y="0" width="600" height="64" fill="#FFFFFF"/>
  <rect x="0" y="63" width="600" height="1" fill="#E8DCC8"/>
  <circle cx="40" cy="32" r="7" fill="#C6633B" opacity="0.9"/>
  <circle cx="52" cy="32" r="7" fill="#8A9A7E" opacity="0.85"/>
  <g fill="#3A332C" opacity="0.55">
    <rect x="536" y="26" width="24" height="4" rx="2"/>
    <rect x="536" y="34" width="24" height="4" rx="2"/>
    <rect x="536" y="42" width="24" height="4" rx="2"/>
  </g>

  <!-- hero -->
  <rect x="0" y="64" width="600" height="360" fill="url(#heroGradM)"/>
  <rect x="60" y="448" width="480" height="24" rx="6" fill="#3A332C" opacity="0.85"/>
  <rect x="90" y="486" width="420" height="14" rx="6" fill="#3A332C" opacity="0.35"/>
  <rect x="150" y="516" width="300" height="46" rx="23" fill="#C6633B"/>

  <!-- product list : stacked -->
  <g>
    <rect x="40" y="612" width="140" height="140" rx="10" fill="url(#cardGradM)"/>
    <rect x="196" y="622" width="360" height="16" rx="6" fill="#3A332C" opacity="0.6"/>
    <rect x="196" y="648" width="260" height="12" rx="6" fill="#3A332C" opacity="0.3"/>
    <rect x="196" y="700" width="84" height="20" rx="10" fill="#8B4A32" opacity="0.8"/>
  </g>
  <g>
    <rect x="40" y="792" width="140" height="140" rx="10" fill="url(#cardGradM)"/>
    <rect x="196" y="802" width="360" height="16" rx="6" fill="#3A332C" opacity="0.6"/>
    <rect x="196" y="828" width="260" height="12" rx="6" fill="#3A332C" opacity="0.3"/>
    <rect x="196" y="880" width="84" height="20" rx="10" fill="#8B4A32" opacity="0.8"/>
  </g>
  <g>
    <rect x="40" y="972" width="140" height="140" rx="10" fill="url(#cardGradM)"/>
    <rect x="196" y="982" width="360" height="16" rx="6" fill="#3A332C" opacity="0.6"/>
    <rect x="196" y="1008" width="260" height="12" rx="6" fill="#3A332C" opacity="0.3"/>
    <rect x="196" y="1060" width="84" height="20" rx="10" fill="#8B4A32" opacity="0.8"/>
  </g>
</svg>
